inDegrees=no
num_controls=7
num_derivatives=13
num_iterations=81
num_multipliers=7
num_parameters=0
num_slacks=7
num_states=26
objective=0.454613
objective_accelerations=0.044060
objective_balance=0.000820
objective_effort=0.036124
objective_height=0.367485
objective_ligament=0.006123
solver_duration=1007.412674
status=Solve_Succeeded
success=true
DataType=double
version=3
OpenSimVersion=4.5
endheader
time	/jointset/ground_pelvis/pelvis_tilt/value	/jointset/ground_pelvis/pelvis_tx/value	/jointset/ground_pelvis/pelvis_ty/value	/jointset/hip_r/hip_flexion_r/value	/jointset/hip_r/hip_adduction_r/value	/jointset/hip_r/hip_rotation_r/value	/jointset/back/lumbar_extension/value	/jointset/patellofemoral_r/patellar_flexion_r/value	/jointset/knee_r/knee_flexion_r/value	/jointset/knee_r/knee_adduction_r/value	/jointset/knee_r/knee_rotation_r/value	/jointset/ankle_r/ankle_angle_r/value	/jointset/subtalar_r/subtalar_angle_r/value	/jointset/ground_pelvis/pelvis_tilt/speed	/jointset/ground_pelvis/pelvis_tx/speed	/jointset/ground_pelvis/pelvis_ty/speed	/jointset/hip_r/hip_flexion_r/speed	/jointset/hip_r/hip_adduction_r/speed	/jointset/hip_r/hip_rotation_r/speed	/jointset/back/lumbar_extension/speed	/jointset/patellofemoral_r/patellar_flexion_r/speed	/jointset/knee_r/knee_flexion_r/speed	/jointset/knee_r/knee_adduction_r/speed	/jointset/knee_r/knee_rotation_r/speed	/jointset/ankle_r/ankle_angle_r/speed	/jointset/subtalar_r/subtalar_angle_r/speed	/forceset/tau_hip_flexion_r	/forceset/tau_hip_adduction_r	/forceset/tau_hip_rotation_r	/forceset/tau_knee_flexion_r	/forceset/tau_ankle_angle_r	/forceset/tau_subtalar_angle_r	/forceset/tau_lumbar_extension	lambda_cid13_p0	lambda_cid14_p0	lambda_cid14_p1	lambda_cid14_p2	lambda_cid14_p3	lambda_cid14_p4	lambda_cid14_p5	/jointset/ground_pelvis/pelvis_tilt/accel	/jointset/ground_pelvis/pelvis_tx/accel	/jointset/ground_pelvis/pelvis_ty/accel	/jointset/hip_r/hip_flexion_r/accel	/jointset/hip_r/hip_adduction_r/accel	/jointset/hip_r/hip_rotation_r/accel	/jointset/back/lumbar_extension/accel	/jointset/patellofemoral_r/patellar_flexion_r/accel	/jointset/knee_r/knee_flexion_r/accel	/jointset/knee_r/knee_adduction_r/accel	/jointset/knee_r/knee_rotation_r/accel	/jointset/ankle_r/ankle_angle_r/accel	/jointset/subtalar_r/subtalar_angle_r/accel	gamma_cid13_p0	gamma_cid14_p0	gamma_cid14_p1	gamma_cid14_p2	gamma_cid14_p3	gamma_cid14_p4	gamma_cid14_p5
1.5	-0.06209750690653319	0.04179368938016513	0.8257270011714073	0.7568413957337784	-0.2505761816468272	-0.06382267176384579	-0.6186029172781894	0.918763025857277	0.918763025857422	0.06019069005716497	0.1730517493782083	0.2993753491524464	0.09661864989596629	0.4070857850386145	0.2088813878782979	0.4657055056127378	-1.870866896452461	0.03866523275943265	-0.4966268466693692	0.8043018756608628	-1.903377623267736	-1.903377623267756	0.1050124492324583	0.009664461357688501	-0.5183179266402335	-0.1118855363249141	-0.1451741264830143	-0.002936267631252443	0.03425366034178674	-0.3119550333866645	0.01356930961217094	-0.01517736637248772	0.2041285089771838	-9.837501508441393	-38.63195985486501	-12.2855832613742	1.158253376820262	-2.610147948793033	-634.6816828524376	61.00155634450283	0.03326865186514226	0.519317498705643	-0.4384156383547291	-0.9372042742206791	0.1399684227444507	-0.1139743706842185	1.760940838746385	-1.406624987471634	-1.40662498747164	0.653125984876994	0.04160681237745764	-0.5797410064863961	0.09147121073749176	9.210018913983984e-08	1.578173180254903e-08	-1.325859547991192e-06	2.829533687710464e-07	1.264357066630976e-07	1.722786839060949e-07	-9.017126138975966e-07
1.51	-0.05802529573612478	0.04390824874025512	0.8303611701056154	0.7380879235087295	-0.2501829883389147	-0.06879467308548515	-0.6104732714696137	0.8996613851672678	0.8996613851672786	0.0612740228999358	0.1731513255658809	0.2941637978564124	0.09550384944602046	0.407298482010556	0.2140051313206625	0.4610282375237053	-1.879571440510665	0.03997448218129294	-0.4977242860265285	0.8215128130315149	-1.916677382529757	-1.91667738252978	0.1116470047436157	0.0102214714076789	-0.5239070748945527	-0.1110474000421367	-0.1383986766021501	-0.004472582288801415	0.03349496363843567	-0.3080431185507133	0.01543955055260932	-0.01553010265787186	0.1977970524808887	-10.85090540347428	-37.7599309836277	-12.14939875114163	0.9804070829791807	-2.767249485194916	-630.176369301518	60.87434744658756	0.006577847991540876	0.5051165314098028	-0.4973533211692556	-0.7986589187303512	0.1265489493905037	-0.1001217817292511	1.683999233008615	-1.250700972292066	-1.25070097229263	0.6674124020126856	0.05840698835038125	-0.5356826467585543	0.08394487424547772	9.536128961726035e-08	3.215916505656464e-08	-1.136543676044403e-06	3.775292710995173e-07	9.805655986162439e-08	1.761501255734602e-07	-7.769343866782476e-07
1.52	-0.05395269607038061	0.04607328828764985	0.8349455721735369	0.7192550899536708	-0.2497766733872892	-0.07377614741339997	-0.6021749504779754	0.8804349369692488	0.8804349369692076	0.06242345971134744	0.1732556036314603	0.2888989188954661	0.09439822236634113	0.4071634841078371	0.2189774253392483	0.4557521323549076	-1.886739162453279	0.04128956150251874	-0.4985214479235851	0.838036912273545	-1.928339124860776	-1.928339124860803	0.1182332429658937	0.0106048369392897	-0.5289834596230284	-0.1100508622714625	-0.1316232267212822	-0.006008896946402464	0.03273626693508595	-0.3041312037147663	0.01730979149302934	-0.01588283894334103	0.1914655959846084	-11.866357272562	-36.88997920362155	-12.01179128978191	0.8002925325565964	-2.933010723796213	-625.69772022273	60.78647880862394	-0.03627032306707847	0.4890276139498371	-0.5581830543078018	-0.6298398511026931	0.1411344026175144	-0.05391887866359434	1.623573213021913	-1.079021601271186	-1.079021601271189	0.6434625271012121	0.006877908701526691	-0.4771883013177339	0.1231515083168197	1.008377261545513e-07	4.510807443433745e-08	-1.043097169765442e-06	4.575261589947777e-07	8.122593485837962e-08	1.861277568821265e-07	-7.211023086969314e-07
1.53	-0.04988316754686784	0.04828720567116977	0.8394742673786133	0.7003583429363847	-0.2493572234582145	-0.0787641604350706	-0.5937151106435165	0.8611001759455187	0.8611001759454338	0.06363849357921005	0.1733629330086319	0.2835858434650304	0.09330328168312362	0.4066856350139988	0.2237713428665921	0.4498914636980597	-1.892341061278122	0.04260135378991486	-0.4990492090338561	0.853786446437963	-1.93832343134408	-1.938323431344063	0.1247444471347944	0.01084383001148673	-0.5335426569988062	-0.1089101628310291	-0.1247327089837821	-0.007637193080994193	0.03196053816705569	-0.3003435193508341	0.01917787557229175	-0.01628615149154303	0.1850012150048819	-12.88060426650668	-36.03455968218994	-11.90227738144474	0.6287510413421888	-3.022409216560937	-621.3270526600095	60.68788769471388	-0.06202565993974237	0.4693823921594282	-0.6142832342042432	-0.484981241634696	0.126342865281222	-0.04725876467285348	1.528952291290008	-0.9147104621283373	-0.9147104621215877	0.6504467192306609	0.0299098581405902	-0.4319089535648633	0.1134955175647523	1.086679572554544e-07	5.44141771936023e-08	-1.051511864508544e-06	5.220328440547517e-07	7.66656142657524e-08	2.02593214684675e-07	-7.385255142810242e-07
